<svg xmlns="http://www.w3.org/2000/svg" width="107" height="83.56" viewBox="0 0 107 83.56"><rect width="106.035" height="3.786" transform="translate(0.82 79.774)" fill="#001f54"/><path d="M11.575,5.474A4.351,4.351,0,0,0,8.32,4.124c-1.254,0-3.014.579-3.014,2.1,0,3.714,9.357,1.326,9.357,8.44,0,4.534-3.641,6.68-7.838,6.68A9.615,9.615,0,0,1,0,18.81l3.183-3.5A4.982,4.982,0,0,0,7.09,17.243c1.471,0,3.111-.7,3.111-2.122,0-3.738-9.526-1.712-9.526-8.489C.651,2.267,4.413,0,8.416,0a9.17,9.17,0,0,1,6.222,2.122Z" fill="#001f54"/><path d="M69.157,6.079H63.9V2.1h15V6.055H73.643v16.35H69.157Z" transform="translate(-48.49 -1.594)" fill="#001f54"/><path d="M130.224,2.1h7.862c4.172,0,7.669,1.447,7.669,6.174,0,2.846-1.519,5.04-4.389,5.571l5.161,8.585h-5.378L136.9,14.3h-2.219v8.127H130.2V2.1Zm4.485,8.416h2.653c1.64,0,3.762-.048,3.762-2.267,0-2.026-1.833-2.363-3.473-2.363h-2.918v4.63Z" transform="translate(-98.802 -1.594)" fill="#001f54"/><path d="M199.9,2.1h13.794V6.224h-9.333v3.81h8.826v4.124h-8.8v4.124h9.839v4.124H199.9Z" transform="translate(-151.693 -1.594)" fill="#001f54"/><path d="M262.3,2.1h13.818V6.224h-9.333v3.81h8.8v4.124h-8.8v4.124h9.839v4.124H262.3V2.1Z" transform="translate(-199.045 -1.594)" fill="#001f54"/><path d="M328.057,6.079H322.8V2.1h15V6.055h-5.257v16.35h-4.486Z" transform="translate(-244.956 -1.594)" fill="#001f54"/><path d="M394.451,5.474a4.336,4.336,0,0,0-3.231-1.35c-1.254,0-3.014.579-3.014,2.1,0,3.714,9.357,1.326,9.357,8.44,0,4.534-3.641,6.68-7.837,6.68a9.636,9.636,0,0,1-6.825-2.556l3.159-3.5a4.982,4.982,0,0,0,3.907,1.929c1.471,0,3.111-.7,3.111-2.122,0-3.738-9.526-1.712-9.526-8.489,0-4.341,3.762-6.608,7.741-6.608a9.17,9.17,0,0,1,6.222,2.122Z" transform="translate(-290.562)" fill="#001f54"/><path d="M6.3,100.3h4.485v7.572h8.706V100.3h4.485v20.329h-4.51v-8.778H10.785v8.778H6.3Z" transform="translate(-4.781 -76.112)" fill="#001f54"/><path d="M89.2,100.3h13.818v4.124H93.685v3.786h8.8v4.124h-8.8v4.124h9.839v4.124H89.2Z" transform="translate(-67.689 -76.112)" fill="#001f54"/><path d="M159.8,100.3h3.714l8.85,20.329h-5.04l-1.76-4.317H157.68l-1.688,4.317H151Zm1.712,5.908-2.46,6.318h4.968Z" transform="translate(-114.586 -76.112)" fill="#001f54"/><path d="M220.3,100.3h5.112l5.016,13.312h.048l5.112-13.312h4.8L232,120.629h-3.569Z" transform="translate(-167.174 -76.112)" fill="#001f54"/><path d="M309.424,100.3h13.818v4.124h-9.357v3.786h8.8v4.124h-8.8v4.124h9.839v4.124H309.4V100.3Z" transform="translate(-234.787 -76.112)" fill="#001f54"/><path d="M375.424,100.3h7.862c4.172,0,7.669,1.423,7.669,6.174,0,2.846-1.519,5.04-4.389,5.571l5.161,8.585h-5.378L382.1,112.5h-2.219v8.127H375.4V100.3Zm4.485,8.416h2.629c1.64,0,3.762-.048,3.762-2.267,0-2.05-1.833-2.363-3.473-2.363H379.91Z" transform="translate(-284.871 -76.112)" fill="#001f54"/><g transform="translate(0.386 47.821)"><path d="M59.887,262.4a6.609,6.609,0,1,0,6.487,6.608A6.261,6.261,0,0,0,59.887,262.4Zm0,12.13a5.551,5.551,0,1,1,5.329-5.547C65.192,272.263,63.022,274.53,59.887,274.53Z" transform="translate(-40.908 -246.942)" fill="#001f54"/><path d="M368.751,212.24a.587.587,0,0,0,.579-.579v-5.378h2.146l3.352,5.667.048.1.024.048h0a.58.58,0,0,0,.989-.41.531.531,0,0,0-.024-.193h0l-3.183-5.257c2.122-.265,3.207-1.35,3.207-3.231,0-2.194-1.5-3.3-4.485-3.3h-2.725a.587.587,0,0,0-.579.579v11.407A.718.718,0,0,0,368.751,212.24Zm6.029-9.284c0,.531-.217,2.243-2.942,2.243h-2.484v-4.461h2.484C374.563,200.737,374.78,202.449,374.78,202.956Z" transform="translate(-279.717 -199.362)" fill="#001f54"/><path d="M97.643,212.116a.7.7,0,0,0,.217.048.552.552,0,0,0,.531-.362l1.254-2.966h6L106.9,211.8l.024.072.024.024h0a.556.556,0,0,0,.482.265.7.7,0,0,0,.217-.048.571.571,0,0,0,.313-.313.713.713,0,0,0,.048-.241h.048l-4.847-11.624c0-.024-.024-.048-.048-.072v-.024c-.024-.024-.024-.048-.048-.072l-.024-.024c-.024-.024-.048-.048-.072-.048H103c-.024-.024-.048-.024-.072-.048l-.024-.024a.181.181,0,0,0-.121-.024h-.241c-.048,0-.072.024-.121.024h-.024c-.024.024-.048.024-.072.048l-.024.024c-.024.024-.048.024-.072.048l-.024.024c-.024.024-.024.048-.048.048h0L97.329,211.3a.511.511,0,0,0,0,.458A.594.594,0,0,0,97.643,212.116Zm2.484-4.365,2.556-6.053,2.556,6.053Z" transform="translate(-74.203 -199.286)" fill="#001f54"/><path d="M172.479,200.758h3.714v10.8a.579.579,0,0,0,1.158,0v-10.8h3.714a.579.579,0,0,0,0-1.158h-8.585a.579.579,0,0,0,0,1.158Z" transform="translate(-130.832 -199.286)" fill="#001f54"/><path d="M60.179,212.164h6.849a.535.535,0,0,0,.531-.531.543.543,0,0,0-.386-.506V211.1H60.758v-4.9h5.595a.53.53,0,0,0,.506-.531v-.024a.515.515,0,0,0-.531-.506H60.758v-4.485h6a.531.531,0,0,0-.024-1.061H60.179a.587.587,0,0,0-.579.579v11.407A.587.587,0,0,0,60.179,212.164Z" transform="translate(-45.613 -199.286)" fill="#001f54"/><path d="M130.161,264.131v-.048h0a.661.661,0,0,0-.313-.41.486.486,0,0,0-.265-.072.629.629,0,0,0-.482.241h0l-5.257,10.466-5.209-10.37a.6.6,0,0,0-.531-.313.486.486,0,0,0-.265.072.6.6,0,0,0-.313.41H117.5v11.5a.579.579,0,1,0,1.158,0v-8.923l4.606,9.164a.641.641,0,0,0,.241.265l.024.024h.024l.072.024a.089.089,0,0,1,.072.024h.217a.089.089,0,0,0,.072-.024l.048-.024c.024,0,.024,0,.048-.024l.024-.024a.641.641,0,0,0,.241-.265l4.606-9.164v8.923a.579.579,0,1,0,1.158,0V264.2Z" transform="translate(-89.55 -247.853)" fill="#001f54"/><path d="M12.259,272.863l-.024.048.024-.048a.718.718,0,0,0-.338-.121.306.306,0,0,0-.145.024V272.6l-.265.314a4.634,4.634,0,0,1-3.424,1.543,5.551,5.551,0,0,1,0-11.093,4.257,4.257,0,0,1,3.063,1.23l.265.289v-.121a.41.41,0,0,0,.169.024.587.587,0,0,0,.579-.579.565.565,0,0,0-.169-.41,5.328,5.328,0,0,0-3.907-1.5,6.609,6.609,0,0,0,0,13.215,5.46,5.46,0,0,0,4.293-1.833.507.507,0,0,0,.121-.362A.583.583,0,0,0,12.259,272.863Z" transform="translate(-1.6 -246.866)" fill="#001f54"/><path d="M17.581,200.082v-.048h0A.623.623,0,0,0,17,199.6a.587.587,0,0,0-.579.579v4.968H9.382v-4.968a.591.591,0,0,0-1.182,0v11.407a.579.579,0,0,0,1.158,0v-5.378h7.018v5.4a.587.587,0,0,0,.579.579.593.593,0,0,0,.579-.434h.024V200.179Z" transform="translate(-6.608 -199.286)" fill="#001f54"/><path d="M323.958,264.134h0a.593.593,0,0,0-.579-.434.587.587,0,0,0-.579.579v11.382a.587.587,0,0,0,.579.579.593.593,0,0,0,.579-.434h.024V264.158Z" transform="translate(-245.341 -247.929)" fill="#001f54"/><path d="M351.755,263.4a.587.587,0,0,0-.579.579v9.743l-8.127-10.08-.048-.048-.241-.289v.121a.745.745,0,0,0-.193-.048.785.785,0,0,0-.338.1.511.511,0,0,0-.241.482v11.383a.579.579,0,0,0,1.158,0v-9.694l8.127,10.08a.563.563,0,0,0,.482.241.785.785,0,0,0,.338-.1.658.658,0,0,0,.217-.289h.024V264A.592.592,0,0,0,351.755,263.4Z" transform="translate(-259.9 -247.625)" fill="#001f54"/><path d="M323.949,208.736,325.2,211.7a.6.6,0,0,0,.531.362.7.7,0,0,0,.217-.048.6.6,0,0,0,.314-.772l-4.775-11.382a.024.024,0,0,0-.024-.024l-.048-.072c-.024-.024-.024-.048-.048-.072l-.024-.024a.186.186,0,0,0-.072-.048l-.024-.024c-.024-.024-.048-.024-.072-.048l-.024-.024a.145.145,0,0,0-.1-.024h-.241c-.024,0-.048.024-.1.024a.024.024,0,0,0-.024.024c-.024,0-.048.024-.072.048l-.024.024c-.024.024-.048.024-.048.048l-.024.024c-.024.024-.024.048-.048.072a.024.024,0,0,1-.024.024v.024c0,.024-.024.024-.024.048l-4.8,11.407a.589.589,0,0,0,.314.772.7.7,0,0,0,.217.048.552.552,0,0,0,.531-.362l1.254-2.966h6Zm-5.547-1.061,2.556-6.053,2.556,6.053Z" transform="translate(-239.859 -199.211)" fill="#001f54"/><path d="M156.463,211.031h-5.305V200.179a.579.579,0,1,0-1.158,0v11.407a.587.587,0,0,0,.579.579h5.884a.546.546,0,0,0,.555-.555A.583.583,0,0,0,156.463,211.031Z" transform="translate(-114.213 -199.286)" fill="#001f54"/><path d="M417.872,211.1v-.024h-6.439v-4.9h5.595a.53.53,0,0,0,.506-.531v-.024a.515.515,0,0,0-.531-.506h-5.571v-4.461h6.029a.531.531,0,0,0-.024-1.061h-6.559a.587.587,0,0,0-.579.579v11.407a.587.587,0,0,0,.579.579H417.7a.535.535,0,0,0,.531-.531A.552.552,0,0,0,417.872,211.1Z" transform="translate(-311.74 -199.286)" fill="#001f54"/><path d="M406.235,268.253H403.22a.579.579,0,1,0,0,1.158h2.436v4.22a6.825,6.825,0,0,1-3.521.748,5.551,5.551,0,0,1,0-11.093,5.437,5.437,0,0,1,3.3,1.158l.1.072.048.024v-.024a.7.7,0,0,0,.217.048.629.629,0,0,0,.41-.169.565.565,0,0,0,.169-.41.594.594,0,0,0-.217-.458,6.138,6.138,0,0,0-4.076-1.326,6.609,6.609,0,0,0,0,13.215,9.248,9.248,0,0,0,4.365-.965l.193-.1-.024-.024a.548.548,0,0,0,.145-.386v-5.137A.487.487,0,0,0,406.235,268.253Z" transform="translate(-300.585 -246.79)" fill="#001f54"/><path d="M279.064,263.7h-8.585a.579.579,0,0,0,0,1.158h3.714v10.8a.579.579,0,1,0,1.158,0v-10.8h3.714a.579.579,0,0,0,0-1.158Z" transform="translate(-205.198 -247.929)" fill="#001f54"/><path d="M226.775,211.585a.587.587,0,0,0,.579.579.593.593,0,0,0,.579-.434h.024v-11.7h0a.623.623,0,0,0-.579-.434.587.587,0,0,0-.579.579v4.968h-7.018v-4.968a.591.591,0,0,0-1.182,0v11.407a.579.579,0,1,0,1.158,0v-5.378h7.018Z" transform="translate(-166.27 -199.286)" fill="#001f54"/><path d="M271.311,211.491a5.46,5.46,0,0,0,4.293-1.833.507.507,0,0,0,.121-.362.63.63,0,0,0-.241-.482l-.024.048v-.048a.554.554,0,0,0-.338-.1.486.486,0,0,0-.265.072l-.024-.024-.121.145a4.634,4.634,0,0,1-3.424,1.543,5.551,5.551,0,0,1,0-11.093,4.257,4.257,0,0,1,3.063,1.23l.265.289v-.121a.41.41,0,0,0,.169.024.587.587,0,0,0,.579-.579.565.565,0,0,0-.169-.41,5.328,5.328,0,0,0-3.907-1.5,6.6,6.6,0,0,0,.024,13.191Z" transform="translate(-201.328 -198.3)" fill="#001f54"/><path d="M187.117,263.7h-3.039a.587.587,0,0,0-.579.579v11.382a.587.587,0,0,0,.579.579.593.593,0,0,0,.579-.434h.024v-5.522h2.725c1.736,0,3.786-.868,3.786-3.28C191.169,263.941,188.082,263.7,187.117,263.7Zm2.87,3.328c0,1.4-.989,2.219-2.653,2.219h-2.653v-4.461h2.58C188.516,264.761,189.987,265.364,189.987,267.028Z" transform="translate(-139.634 -247.929)" fill="#001f54"/><path d="M233.437,263.7a.571.571,0,0,0-.579.579v6.9c0,2-.6,4.365-3.4,4.365-2.822,0-3.4-2.363-3.4-4.365v-6.9a.579.579,0,0,0-1.158,0v7.162c0,1.905.6,5.137,4.582,5.137s4.582-3.207,4.582-5.137v-7.162A.631.631,0,0,0,233.437,263.7Z" transform="translate(-171.05 -247.929)" fill="#001f54"/></g></svg>