<?xml version="1.0" encoding="utf-8"?>

<svg version="1.1" id="Layer_2_00000085233766315203744630000009748871744010784934_" xmlns="http://www.w3.org/2000/svg" xmlns:xlink="http://www.w3.org/1999/xlink" x="0px" y="0px" viewBox="0 0 911.5 273.9" style="enable-background:new 0 0 911.5 273.9;" xml:space="preserve">


<path fill="#001f54" d="M79.2,194.6V86.7h13v95h48.3v12.9H79.2z"></path>
<path fill="#001f54" d="M145.5,165.3v-47.8h12.9v44.9c0,3.9,1,7.5,2.9,10.6c1.9,3.2,4.5,5.7,7.7,7.6c3.2,1.9,6.7,2.8,10.6,2.8&#xA;&#x9;c3.9,0,7.4-0.9,10.6-2.8c3.2-1.9,5.7-4.4,7.6-7.6c1.9-3.2,2.9-6.7,2.9-10.6v-44.9h13l0.1,77.1h-13l-0.1-9.8&#xA;&#x9;c-2.7,3.6-6.2,6.5-10.3,8.6c-4.2,2.1-8.7,3.2-13.5,3.2c-5.8,0-11-1.4-15.8-4.2c-4.8-2.8-8.5-6.6-11.3-11.3&#xA;&#x9;C146.9,176.4,145.5,171.1,145.5,165.3z"></path>
<path fill="#001f54" d="M265.9,130.5h-17.5l-0.1,64.1h-13l0.1-64.1h-13.3v-12.9h13.3l-0.1-24.2h13l0.1,24.2h17.5V130.5z"></path>
<path fill="#001f54" d="M276.6,194.6v-77.1h12.9v9.6c2.7-3.6,6.2-6.5,10.3-8.6c4.2-2.1,8.7-3.2,13.6-3.2c3,0,5.9,0.4,8.6,1.2l-5.2,12.9&#xA;&#x9;c-2.1-0.7-4.2-1-6.2-1c-3.9,0-7.4,0.9-10.6,2.8c-3.2,1.9-5.8,4.4-7.7,7.6c-1.9,3.2-2.9,6.7-2.9,10.6v45.1H276.6z"></path>
<path fill="#001f54" d="M386.6,117.5h12.9v77.1h-12.9l-0.5-13c-2.4,4.5-5.7,8.1-10,10.9c-4.2,2.8-9.3,4.2-15.1,4.2&#xA;&#x9;c-5.7,0-10.9-1.1-15.9-3.2c-4.9-2.1-9.3-5.1-13.1-8.9c-3.8-3.8-6.7-8.1-8.8-13.1c-2.1-4.9-3.2-10.3-3.2-16c0-5.5,1-10.7,3.1-15.6&#xA;&#x9;c2.1-4.9,4.9-9.2,8.6-12.8c3.7-3.7,7.9-6.6,12.8-8.6c4.8-2.1,10-3.1,15.6-3.1c6.1,0,11.4,1.4,16,4.3c4.6,2.9,8.3,6.5,11.1,11.1&#xA;&#x9;L386.6,117.5z M360.7,184c5.1,0,9.5-1.2,13.2-3.7c3.7-2.5,6.6-5.9,8.6-10.1c2-4.3,3-9,3-14.1c0-5.2-1-10-3.1-14.2&#xA;&#x9;c-2.1-4.2-4.9-7.6-8.7-10.1c-3.7-2.5-8.1-3.7-13.1-3.7c-5.1,0-9.7,1.3-13.9,3.8c-4.2,2.5-7.5,5.9-9.9,10.1c-2.4,4.2-3.7,9-3.7,14.1&#xA;&#x9;c0,5.2,1.3,9.9,3.8,14.1c2.5,4.2,5.9,7.6,10,10.1C351.2,182.8,355.7,184,360.7,184z"></path>
<path fill="#2c48ed" d="M482.1,86.7H495v107.9h-12.9v-51.3h-53.4v51.3h-12.9V86.7h12.9v43.6h53.4V86.7z"></path>
<path fill="#2c48ed" d="M546.8,196.6c-7.1,0-13.6-1.8-19.4-5.5c-5.8-3.6-10.5-8.5-14-14.7c-3.5-6.1-5.2-12.9-5.2-20.4&#xA;&#x9;c0-5.7,1-10.9,3-15.8c2-4.9,4.8-9.2,8.3-12.9c3.5-3.7,7.6-6.6,12.3-8.7c4.7-2.1,9.7-3.2,15-3.2c5.8,0,11.1,1.2,16,3.5&#xA;&#x9;c4.9,2.3,9,5.6,12.5,9.8c3.5,4.2,6.1,9,7.8,14.5c1.7,5.5,2.4,11.4,1.9,17.7h-62.9c0.6,4.4,2.1,8.3,4.3,11.7c2.3,3.4,5.2,6.1,8.7,8.1&#xA;&#x9;c3.5,2,7.4,3,11.8,3.1c4.6,0,8.8-1.2,12.6-3.6c3.8-2.4,6.8-5.7,9.1-9.8l13.2,3.1c-3.1,6.8-7.7,12.4-14,16.8&#xA;&#x9;C561.5,194.4,554.5,196.6,546.8,196.6z M521.7,150.6h50.3c-0.4-4.3-1.8-8.3-4.2-11.8c-2.4-3.6-5.4-6.4-9-8.6&#xA;&#x9;c-3.6-2.2-7.6-3.2-11.9-3.2s-8.3,1.1-11.9,3.2c-3.6,2.1-6.6,4.9-8.9,8.5C523.7,142.2,522.2,146.2,521.7,150.6z"></path>
<path fill="#2c48ed" d="M662.6,117.5h12.9v77.1h-12.9l-0.5-13c-2.4,4.5-5.7,8.1-10,10.9c-4.2,2.8-9.3,4.2-15.1,4.2&#xA;&#x9;c-5.7,0-10.9-1.1-15.9-3.2c-4.9-2.1-9.3-5.1-13.1-8.9c-3.8-3.8-6.7-8.1-8.8-13.1c-2.1-4.9-3.2-10.3-3.2-16c0-5.5,1-10.7,3.1-15.6&#xA;&#x9;c2.1-4.9,4.9-9.2,8.6-12.8c3.7-3.7,7.9-6.6,12.8-8.6c4.8-2.1,10-3.1,15.6-3.1c6.1,0,11.4,1.4,16,4.3c4.6,2.9,8.3,6.5,11.1,11.1&#xA;&#x9;L662.6,117.5z M636.7,184c5.1,0,9.5-1.2,13.2-3.7c3.7-2.5,6.6-5.9,8.6-10.1c2-4.3,3-9,3-14.1c0-5.2-1-10-3.1-14.2&#xA;&#x9;c-2.1-4.2-4.9-7.6-8.7-10.1c-3.7-2.5-8.1-3.7-13.1-3.7c-5.1,0-9.7,1.3-13.9,3.8c-4.2,2.5-7.5,5.9-9.9,10.1c-2.4,4.2-3.7,9-3.7,14.1&#xA;&#x9;c0,5.2,1.3,9.9,3.8,14.1c2.5,4.2,5.9,7.6,10,10.1C627.2,182.8,631.8,184,636.7,184z"></path>
<path fill="#2c48ed" d="M685.6,194.6V79h13v115.6H685.6z"></path>
<path fill="#2c48ed" d="M753.8,130.5h-17.5l-0.1,64.1h-13l0.1-64.1h-13.3v-12.9h13.3l-0.1-24.2h13l0.1,24.2h17.5V130.5z"></path>
<path fill="#2c48ed" d="M832.7,146.7v47.9h-13v-45.1c0-3.9-1-7.5-2.9-10.6c-1.9-3.2-4.4-5.7-7.6-7.6c-3.2-1.9-6.7-2.8-10.6-2.8&#xA;&#x9;c-3.9,0-7.4,0.9-10.6,2.8c-3.2,1.9-5.8,4.4-7.7,7.6c-1.9,3.2-2.9,6.7-2.9,10.6v45.1h-13V79h13v48.2c2.7-3.6,6.2-6.5,10.3-8.6&#xA;&#x9;c4.2-2.1,8.7-3.2,13.6-3.2c5.8,0,11,1.4,15.8,4.2c4.8,2.8,8.5,6.6,11.3,11.3C831.3,135.6,832.7,140.9,832.7,146.7z"></path>
<path fill="#2c48ed" d="M852,196.6c-2,0-3.6-0.7-5-2.1s-2-3.1-2-5.1c0-1.9,0.7-3.5,2-4.9s3-2.1,5-2.1c2,0,3.7,0.7,5.1,2.1&#xA;&#x9;s2.1,3,2.1,4.9c0,2-0.7,3.7-2.1,5.1S854.1,196.6,852,196.6z"></path>
</svg>