<?xml version="1.0"?>
<svg xmlns="http://www.w3.org/2000/svg" width="729.4" height="87.3" viewBox="32 28.6 729.4 87.3" role="img" aria-label="Lutra Connect lockup — mono navy">
  <g transform="translate(24, 24)">
    <g transform="translate(8, 4.6) scale(5.4563)">
      <circle cx="8" cy="8" r="8" fill="#2c48ed"></circle>
      <circle cx="8" cy="8" r="4.1" fill="#001f54"></circle>
      <circle cx="10.9" cy="5.4" r="2.6" fill="#ffffff"></circle>
    </g>
    <g transform="translate(124.60, 0)">
      <path d="M21.600 0L8 0L8-73.500L21.600-73.500L21.600 0ZM53.200 1.600L53.200 1.600Q46.850 1.600 42.850-0.550Q38.850-2.700 36.625-6Q34.400-9.300 33.450-12.875Q32.500-16.450 32.300-19.400Q32.100-22.350 32.100-23.700L32.100-23.700L32.100-54L45.900-54L45.900-28.500Q45.900-26.650 46.100-23.775Q46.300-20.900 47.350-18Q48.400-15.100 50.775-13.150Q53.150-11.200 57.500-11.200L57.500-11.200Q59.250-11.200 61.250-11.750Q63.250-12.300 65-13.875Q66.750-15.450 67.875-18.525Q69-21.600 69-26.600L69-26.600L76.800-22.900Q76.800-16.500 74.200-10.900Q71.600-5.300 66.375-1.850Q61.150 1.600 53.200 1.600ZM82.700 0L70.700 0L70.700-17.900L69-17.900L69-54L82.700-54L82.700 0ZM125.600-11.300L125.600 0Q120 1.050 114.625 0.925Q109.250 0.800 105.025-0.975Q100.800-2.750 98.600-6.700L98.600-6.700Q96.600-10.400 96.500-14.225Q96.400-18.050 96.400-22.900L96.400-22.900L96.400-69L110-69L110-23.700Q110-20.550 110.075-18.025Q110.150-15.500 111.100-14L111.100-14Q112.900-11.150 116.850-10.900Q120.800-10.650 125.600-11.300L125.600-11.300ZM125.600-43.500L87.200-43.500L87.200-54L125.600-54L125.600-43.500ZM147.800 0L134.100 0L134.100-54L146.100-54L146.100-40.800L144.800-42.500Q145.850-45.300 147.600-47.600Q149.350-49.900 151.900-51.400L151.900-51.400Q153.850-52.600 156.150-53.275Q158.450-53.950 160.900-54.125Q163.350-54.300 165.800-54L165.800-54L165.800-41.300Q163.550-42 160.575-41.775Q157.600-41.550 155.200-40.400L155.200-40.400Q152.800-39.300 151.150-37.475Q149.500-35.650 148.650-33.175Q147.800-30.700 147.800-27.600L147.800-27.600L147.800 0ZM186.800 1.500L186.800 1.500Q181 1.500 176.975-0.725Q172.950-2.950 170.875-6.675Q168.800-10.400 168.800-14.900L168.800-14.900Q168.800-18.650 169.950-21.750Q171.100-24.850 173.675-27.225Q176.250-29.600 180.600-31.200L180.600-31.200Q183.600-32.300 187.750-33.150Q191.900-34 197.150-34.775Q202.400-35.550 208.700-36.500L208.700-36.500L203.800-33.800Q203.800-38.600 201.500-40.850Q199.200-43.100 193.800-43.100L193.800-43.100Q190.800-43.100 187.550-41.650Q184.300-40.200 183-36.500L183-36.500L170.700-40.400Q172.750-47.100 178.400-51.300Q184.050-55.500 193.800-55.500L193.800-55.500Q200.950-55.500 206.500-53.300Q212.050-51.100 214.900-45.700L214.900-45.700Q216.500-42.700 216.800-39.700Q217.100-36.700 217.100-33L217.100-33L217.100 0L205.200 0L205.200-11.100L206.900-8.800Q202.950-3.350 198.375-0.925Q193.800 1.500 186.800 1.500ZM189.700-9.200L189.700-9.200Q193.450-9.200 196.025-10.525Q198.600-11.850 200.125-13.550Q201.650-15.250 202.200-16.400L202.200-16.400Q203.250-18.600 203.425-21.525Q203.600-24.450 203.600-26.400L203.600-26.400L207.600-25.400Q201.550-24.400 197.800-23.725Q194.050-23.050 191.750-22.500Q189.450-21.950 187.700-21.300L187.700-21.300Q185.700-20.500 184.475-19.575Q183.250-18.650 182.675-17.550Q182.100-16.450 182.100-15.100L182.100-15.100Q182.100-13.250 183.025-11.925Q183.950-10.600 185.650-9.900Q187.350-9.200 189.700-9.200Z" fill="#001f54" transform="translate(-8.00, 81.00)"></path>
      <path d="M30.800 1.500L30.800 1.500Q22.400 1.500 16.400-2.250Q10.400-6 7.200-12.450Q4-18.900 4-27L4-27Q4-35.200 7.325-41.650Q10.650-48.100 16.700-51.800Q22.750-55.500 31-55.500L31-55.500Q40.550-55.500 47.025-50.675Q53.500-45.850 55.300-37.500L55.300-37.500L41.700-33.900Q40.500-38.100 37.525-40.450Q34.550-42.800 30.800-42.800L30.800-42.800Q26.500-42.800 23.750-40.725Q21-38.650 19.700-35.075Q18.400-31.500 18.400-27L18.400-27Q18.400-19.950 21.525-15.575Q24.650-11.200 30.800-11.200L30.800-11.200Q35.400-11.200 37.800-13.300Q40.200-15.400 41.400-19.300L41.400-19.300L55.300-16.400Q53-7.800 46.600-3.150Q40.200 1.500 30.800 1.500ZM86.100 1.500L86.100 1.500Q77.950 1.500 71.800-2.150Q65.650-5.800 62.225-12.225Q58.800-18.650 58.800-27L58.800-27Q58.800-35.450 62.300-41.875Q65.800-48.300 71.950-51.900Q78.100-55.500 86.100-55.500L86.100-55.500Q94.250-55.500 100.425-51.850Q106.600-48.200 110.050-41.775Q113.500-35.350 113.500-27L113.500-27Q113.500-18.600 110.025-12.175Q106.550-5.750 100.375-2.125Q94.200 1.500 86.100 1.500ZM86.100-11.200L86.100-11.200Q92.650-11.200 95.875-15.625Q99.100-20.050 99.100-27L99.100-27Q99.100-34.200 95.825-38.500Q92.550-42.800 86.100-42.800L86.100-42.800Q81.650-42.800 78.800-40.800Q75.950-38.800 74.575-35.250Q73.200-31.700 73.200-27L73.200-27Q73.200-19.750 76.475-15.475Q79.750-11.200 86.100-11.200ZM171.600 0L157.800 0L157.800-25.500Q157.800-27.350 157.600-30.225Q157.400-33.100 156.350-36Q155.300-38.900 152.925-40.850Q150.550-42.800 146.200-42.800L146.200-42.800Q144.450-42.800 142.450-42.250Q140.450-41.700 138.700-40.125Q136.950-38.550 135.825-35.500Q134.700-32.450 134.700-27.400L134.700-27.400L126.900-31.100Q126.900-37.500 129.500-43.100Q132.100-48.700 137.325-52.150Q142.550-55.600 150.500-55.600L150.500-55.600Q156.850-55.600 160.850-53.450Q164.850-51.300 167.075-48Q169.300-44.700 170.250-41.125Q171.200-37.550 171.400-34.600Q171.600-31.650 171.600-30.300L171.600-30.300L171.600 0ZM134.700 0L120.900 0L120.900-54L133-54L133-36.100L134.700-36.100L134.700 0ZM231.700 0L217.900 0L217.900-25.500Q217.900-27.350 217.700-30.225Q217.500-33.100 216.450-36Q215.400-38.900 213.025-40.850Q210.650-42.800 206.300-42.800L206.300-42.800Q204.550-42.800 202.550-42.250Q200.550-41.700 198.800-40.125Q197.050-38.550 195.925-35.500Q194.800-32.450 194.800-27.400L194.800-27.400L187-31.100Q187-37.500 189.600-43.100Q192.200-48.700 197.425-52.150Q202.650-55.600 210.600-55.600L210.600-55.600Q216.950-55.600 220.950-53.450Q224.950-51.300 227.175-48Q229.400-44.700 230.350-41.125Q231.300-37.550 231.500-34.600Q231.700-31.650 231.700-30.300L231.700-30.300L231.700 0ZM194.800 0L181 0L181-54L193.100-54L193.100-36.100L194.800-36.100L194.800 0ZM266.300 1.500L266.300 1.500Q258 1.500 251.675-2.075Q245.350-5.650 241.775-11.925Q238.200-18.200 238.200-26.300L238.200-26.300Q238.200-35.150 241.700-41.700Q245.200-48.250 251.350-51.875Q257.500-55.500 265.500-55.500L265.500-55.500Q274-55.500 279.950-51.500Q285.900-47.500 288.750-40.250Q291.600-33 290.750-23.200L290.750-23.200L277.300-23.200L277.300-28.200Q277.300-36.450 274.675-40.075Q272.050-43.700 266.100-43.700L266.100-43.700Q259.150-43.700 255.875-39.475Q252.600-35.250 252.600-27L252.600-27Q252.600-19.450 255.875-15.325Q259.150-11.200 265.500-11.200L265.500-11.200Q269.500-11.200 272.350-12.950Q275.200-14.700 276.700-18L276.700-18L290.300-14.100Q287.250-6.700 280.675-2.600Q274.100 1.500 266.300 1.500ZM284.200-23.200L248.400-23.200L248.400-33.300L284.200-33.300L284.200-23.200ZM322.300 1.500L322.300 1.500Q313.900 1.500 307.900-2.250Q301.900-6 298.700-12.450Q295.500-18.900 295.500-27L295.500-27Q295.500-35.200 298.825-41.650Q302.150-48.100 308.200-51.800Q314.250-55.500 322.500-55.500L322.500-55.500Q332.050-55.500 338.525-50.675Q345-45.850 346.800-37.500L346.800-37.500L333.200-33.900Q332-38.100 329.025-40.450Q326.050-42.800 322.300-42.800L322.300-42.800Q318-42.800 315.250-40.725Q312.500-38.650 311.200-35.075Q309.900-31.500 309.900-27L309.900-27Q309.900-19.950 313.025-15.575Q316.150-11.200 322.300-11.200L322.300-11.200Q326.900-11.200 329.300-13.300Q331.700-15.400 332.900-19.300L332.900-19.300L346.800-16.400Q344.500-7.800 338.100-3.150Q331.700 1.500 322.300 1.500ZM385.700-11.300L385.700 0Q380.100 1.050 374.725 0.925Q369.350 0.800 365.125-0.975Q360.900-2.750 358.700-6.700L358.700-6.700Q356.700-10.400 356.600-14.225Q356.500-18.050 356.500-22.900L356.500-22.900L356.500-69L370.100-69L370.100-23.700Q370.100-20.550 370.175-18.025Q370.250-15.500 371.200-14L371.200-14Q373-11.150 376.950-10.900Q380.900-10.650 385.700-11.300L385.700-11.300ZM385.700-43.500L347.300-43.500L347.300-54L385.700-54L385.700-43.500Z" fill="#001f54" transform="translate(227.10, 81.00)"></path>
    </g>
  </g>
</svg>